<svg height="1822" width="720" xmlns="http://www.w3.org/2000/svg">
<rect height="1822" fill="#555" width="720"></rect>
<text fill="#7f7" font-family="Courier New" font-size="12" xml:space="preserve">
<tspan x="10" y="26">29 megabytes installed</tspan>
<tspan x="10" y="42"></tspan>
<tspan x="10" y="58">node_modules</tspan>
<tspan x="10" y="74">└─┬ node-craigslist@1.1.1 </tspan>
<tspan x="10" y="90">  ├─┬ babel-polyfill@6.23.0 </tspan>
<tspan x="10" y="106">  │ ├── babel-runtime@6.23.0 </tspan>
<tspan x="10" y="122">  │ ├── core-js@2.4.1 </tspan>
<tspan x="10" y="138">  │ └── regenerator-runtime@0.10.3 </tspan>
<tspan x="10" y="154">  ├─┬ cheerio@0.20.0 </tspan>
<tspan x="10" y="170">  │ ├─┬ css-select@1.2.0 </tspan>
<tspan x="10" y="186">  │ │ ├── boolbase@1.0.0 </tspan>
<tspan x="10" y="202">  │ │ ├── css-what@2.1.0 </tspan>
<tspan x="10" y="218">  │ │ ├── domutils@1.5.1 </tspan>
<tspan x="10" y="234">  │ │ └── nth-check@1.0.1 </tspan>
<tspan x="10" y="250">  │ ├─┬ dom-serializer@0.1.0 </tspan>
<tspan x="10" y="266">  │ │ └── domelementtype@1.1.3 </tspan>
<tspan x="10" y="282">  │ ├── entities@1.1.1 </tspan>
<tspan x="10" y="298">  │ ├─┬ htmlparser2@3.8.3 </tspan>
<tspan x="10" y="314">  │ │ ├── domelementtype@1.3.0 </tspan>
<tspan x="10" y="330">  │ │ ├── domhandler@2.3.0 </tspan>
<tspan x="10" y="346">  │ │ ├── entities@1.0.0 </tspan>
<tspan x="10" y="362">  │ │ └─┬ readable-stream@1.1.14 </tspan>
<tspan x="10" y="378">  │ │   ├── core-util-is@1.0.2 </tspan>
<tspan x="10" y="394">  │ │   ├── inherits@2.0.3 </tspan>
<tspan x="10" y="410">  │ │   ├── isarray@0.0.1 </tspan>
<tspan x="10" y="426">  │ │   └── string_decoder@0.10.31 </tspan>
<tspan x="10" y="442">  │ ├─┬ jsdom@7.2.2 </tspan>
<tspan x="10" y="458">  │ │ ├── abab@1.0.3 </tspan>
<tspan x="10" y="474">  │ │ ├── acorn@2.7.0 </tspan>
<tspan x="10" y="490">  │ │ ├── acorn-globals@1.0.9 </tspan>
<tspan x="10" y="506">  │ │ ├── cssom@0.3.2 </tspan>
<tspan x="10" y="522">  │ │ ├── cssstyle@0.2.37 </tspan>
<tspan x="10" y="538">  │ │ ├─┬ escodegen@1.8.1 </tspan>
<tspan x="10" y="554">  │ │ │ ├── esprima@2.7.3 </tspan>
<tspan x="10" y="570">  │ │ │ ├── estraverse@1.9.3 </tspan>
<tspan x="10" y="586">  │ │ │ ├── esutils@2.0.2 </tspan>
<tspan x="10" y="602">  │ │ │ ├─┬ optionator@0.8.2 </tspan>
<tspan x="10" y="618">  │ │ │ │ ├── deep-is@0.1.3 </tspan>
<tspan x="10" y="634">  │ │ │ │ ├── fast-levenshtein@2.0.6 </tspan>
<tspan x="10" y="650">  │ │ │ │ ├── levn@0.3.0 </tspan>
<tspan x="10" y="666">  │ │ │ │ ├── prelude-ls@1.1.2 </tspan>
<tspan x="10" y="682">  │ │ │ │ ├── type-check@0.3.2 </tspan>
<tspan x="10" y="698">  │ │ │ │ └── wordwrap@1.0.0 </tspan>
<tspan x="10" y="714">  │ │ │ └─┬ source-map@0.2.0 </tspan>
<tspan x="10" y="730">  │ │ │   └── amdefine@1.0.1 </tspan>
<tspan x="10" y="746">  │ │ ├── nwmatcher@1.3.9 </tspan>
<tspan x="10" y="762">  │ │ ├── parse5@1.5.1 </tspan>
<tspan x="10" y="778">  │ │ ├─┬ request@2.81.0 </tspan>
<tspan x="10" y="794">  │ │ │ ├── aws-sign2@0.6.0 </tspan>
<tspan x="10" y="810">  │ │ │ ├── aws4@1.6.0 </tspan>
<tspan x="10" y="826">  │ │ │ ├── caseless@0.12.0 </tspan>
<tspan x="10" y="842">  │ │ │ ├─┬ combined-stream@1.0.5 </tspan>
<tspan x="10" y="858">  │ │ │ │ └── delayed-stream@1.0.0 </tspan>
<tspan x="10" y="874">  │ │ │ ├── extend@3.0.0 </tspan>
<tspan x="10" y="890">  │ │ │ ├── forever-agent@0.6.1 </tspan>
<tspan x="10" y="906">  │ │ │ ├─┬ form-data@2.1.4 </tspan>
<tspan x="10" y="922">  │ │ │ │ └── asynckit@0.4.0 </tspan>
<tspan x="10" y="938">  │ │ │ ├─┬ har-validator@4.2.1 </tspan>
<tspan x="10" y="954">  │ │ │ │ ├─┬ ajv@4.11.7 </tspan>
<tspan x="10" y="970">  │ │ │ │ │ ├── co@4.6.0 </tspan>
<tspan x="10" y="986">  │ │ │ │ │ └─┬ json-stable-stringify@1.0.1 </tspan>
<tspan x="10" y="1002">  │ │ │ │ │   └── jsonify@0.0.0 </tspan>
<tspan x="10" y="1018">  │ │ │ │ └── har-schema@1.0.5 </tspan>
<tspan x="10" y="1034">  │ │ │ ├─┬ hawk@3.1.3 </tspan>
<tspan x="10" y="1050">  │ │ │ │ ├── boom@2.10.1 </tspan>
<tspan x="10" y="1066">  │ │ │ │ ├── cryptiles@2.0.5 </tspan>
<tspan x="10" y="1082">  │ │ │ │ ├── hoek@2.16.3 </tspan>
<tspan x="10" y="1098">  │ │ │ │ └── sntp@1.0.9 </tspan>
<tspan x="10" y="1114">  │ │ │ ├─┬ http-signature@1.1.1 </tspan>
<tspan x="10" y="1130">  │ │ │ │ ├── assert-plus@0.2.0 </tspan>
<tspan x="10" y="1146">  │ │ │ │ ├─┬ jsprim@1.4.0 </tspan>
<tspan x="10" y="1162">  │ │ │ │ │ ├── assert-plus@1.0.0 </tspan>
<tspan x="10" y="1178">  │ │ │ │ │ ├── extsprintf@1.0.2 </tspan>
<tspan x="10" y="1194">  │ │ │ │ │ ├── json-schema@0.2.3 </tspan>
<tspan x="10" y="1210">  │ │ │ │ │ └── verror@1.3.6 </tspan>
<tspan x="10" y="1226">  │ │ │ │ └─┬ sshpk@1.13.0 </tspan>
<tspan x="10" y="1242">  │ │ │ │   ├── asn1@0.2.3 </tspan>
<tspan x="10" y="1258">  │ │ │ │   ├── assert-plus@1.0.0 </tspan>
<tspan x="10" y="1274">  │ │ │ │   ├── bcrypt-pbkdf@1.0.1 </tspan>
<tspan x="10" y="1290">  │ │ │ │   ├─┬ dashdash@1.14.1 </tspan>
<tspan x="10" y="1306">  │ │ │ │   │ └── assert-plus@1.0.0 </tspan>
<tspan x="10" y="1322">  │ │ │ │   ├── ecc-jsbn@0.1.1 </tspan>
<tspan x="10" y="1338">  │ │ │ │   ├─┬ getpass@0.1.6 </tspan>
<tspan x="10" y="1354">  │ │ │ │   │ └── assert-plus@1.0.0 </tspan>
<tspan x="10" y="1370">  │ │ │ │   ├── jodid25519@1.0.2 </tspan>
<tspan x="10" y="1386">  │ │ │ │   ├── jsbn@0.1.1 </tspan>
<tspan x="10" y="1402">  │ │ │ │   └── tweetnacl@0.14.5 </tspan>
<tspan x="10" y="1418">  │ │ │ ├── is-typedarray@1.0.0 </tspan>
<tspan x="10" y="1434">  │ │ │ ├── isstream@0.1.2 </tspan>
<tspan x="10" y="1450">  │ │ │ ├── json-stringify-safe@5.0.1 </tspan>
<tspan x="10" y="1466">  │ │ │ ├─┬ mime-types@2.1.15 </tspan>
<tspan x="10" y="1482">  │ │ │ │ └── mime-db@1.27.0 </tspan>
<tspan x="10" y="1498">  │ │ │ ├── oauth-sign@0.8.2 </tspan>
<tspan x="10" y="1514">  │ │ │ ├── performance-now@0.2.0 </tspan>
<tspan x="10" y="1530">  │ │ │ ├── qs@6.4.0 </tspan>
<tspan x="10" y="1546">  │ │ │ ├── safe-buffer@5.0.1 </tspan>
<tspan x="10" y="1562">  │ │ │ ├── stringstream@0.0.5 </tspan>
<tspan x="10" y="1578">  │ │ │ ├── tunnel-agent@0.6.0 </tspan>
<tspan x="10" y="1594">  │ │ │ └── uuid@3.0.1 </tspan>
<tspan x="10" y="1610">  │ │ ├── sax@1.2.2 </tspan>
<tspan x="10" y="1626">  │ │ ├── symbol-tree@3.2.2 </tspan>
<tspan x="10" y="1642">  │ │ ├─┬ tough-cookie@2.3.2 </tspan>
<tspan x="10" y="1658">  │ │ │ └── punycode@1.4.1 </tspan>
<tspan x="10" y="1674">  │ │ ├── webidl-conversions@2.0.1 </tspan>
<tspan x="10" y="1690">  │ │ ├─┬ whatwg-url-compat@0.6.5 </tspan>
<tspan x="10" y="1706">  │ │ │ └── tr46@0.0.3 </tspan>
<tspan x="10" y="1722">  │ │ └── xml-name-validator@2.0.1 </tspan>
<tspan x="10" y="1738">  │ └── lodash@4.17.4 </tspan>
<tspan x="10" y="1754">  ├─┬ debug@2.6.4 </tspan>
<tspan x="10" y="1770">  │ └── ms@0.7.3 </tspan>
<tspan x="10" y="1786">  └─┬ source-map-support@0.4.14 </tspan>
<tspan x="10" y="1802">    └── source-map@0.5.6</tspan>
</text>
</svg>
